TITLE ""
FILE "1Q_t_0720-0728.mp3" MP3
  TRACK 01 AUDIO
    TITLE "1Q_t_0720-0728_01"
    INDEX 01 00:00:00
  TRACK 02 AUDIO
    TITLE "1Q_t_0720-0728_02"
    INDEX 01 00:00:10
  TRACK 03 AUDIO
    TITLE "1Q_t_0720-0728_03"
    INDEX 01 00:01:35
  TRACK 04 AUDIO
    TITLE "1Q_t_0720-0728_04"
    INDEX 01 00:01:45
  TRACK 05 AUDIO
    TITLE "1Q_t_0720-0728_05"
    INDEX 01 00:02:66
  TRACK 06 AUDIO
    TITLE "1Q_t_0720-0728_06"
    INDEX 01 00:02:74
  TRACK 07 AUDIO
    TITLE "1Q_t_0720-0728_07"
    INDEX 01 00:07:22
  TRACK 08 AUDIO
    TITLE "1Q_t_0720-0728_08"
    INDEX 01 00:07:71
  TRACK 09 AUDIO
    TITLE "1Q_t_0720-0728_09"
    INDEX 01 00:09:11
  TRACK 10 AUDIO
    TITLE "1Q_t_0720-0728_10"
    INDEX 01 00:09:19
  TRACK 11 AUDIO
    TITLE "1Q_t_0720-0728_11"
    INDEX 01 00:11:10
  TRACK 12 AUDIO
    TITLE "1Q_t_0720-0728_12"
    INDEX 01 00:11:18
  TRACK 13 AUDIO
    TITLE "1Q_t_0720-0728_13"
    INDEX 01 00:15:69
  TRACK 14 AUDIO
    TITLE "1Q_t_0720-0728_14"
    INDEX 01 00:16:41
  TRACK 15 AUDIO
    TITLE "1Q_t_0720-0728_15"
    INDEX 01 00:17:60
  TRACK 16 AUDIO
    TITLE "1Q_t_0720-0728_16"
    INDEX 01 00:17:70
  TRACK 17 AUDIO
    TITLE "1Q_t_0720-0728_17"
    INDEX 01 00:21:34
  TRACK 18 AUDIO
    TITLE "1Q_t_0720-0728_18"
    INDEX 01 00:21:40
  TRACK 19 AUDIO
    TITLE "1Q_t_0720-0728_19"
    INDEX 01 00:27:50
  TRACK 20 AUDIO
    TITLE "1Q_t_0720-0728_20"
    INDEX 01 00:28:22
  TRACK 21 AUDIO
    TITLE "1Q_t_0720-0728_21"
    INDEX 01 00:29:45
  TRACK 22 AUDIO
    TITLE "1Q_t_0720-0728_22"
    INDEX 01 00:29:55
  TRACK 23 AUDIO
    TITLE "1Q_t_0720-0728_23"
    INDEX 01 00:34:13
  TRACK 24 AUDIO
    TITLE "1Q_t_0720-0728_24"
    INDEX 01 00:34:21
  TRACK 25 AUDIO
    TITLE "1Q_t_0720-0728_25"
    INDEX 01 00:39:71
  TRACK 26 AUDIO
    TITLE "1Q_t_0720-0728_26"
    INDEX 01 00:40:41
  TRACK 27 AUDIO
    TITLE "1Q_t_0720-0728_27"
    INDEX 01 00:41:35
  TRACK 28 AUDIO
    TITLE "1Q_t_0720-0728_28"
    INDEX 01 00:41:43
  TRACK 29 AUDIO
    TITLE "1Q_t_0720-0728_29"
    INDEX 01 00:43:73
  TRACK 30 AUDIO
    TITLE "1Q_t_0720-0728_30"
    INDEX 01 00:44:04
  TRACK 31 AUDIO
    TITLE "1Q_t_0720-0728_31"
    INDEX 01 00:49:34
  TRACK 32 AUDIO
    TITLE "1Q_t_0720-0728_32"
    INDEX 01 00:50:06
  TRACK 33 AUDIO
    TITLE "1Q_t_0720-0728_33"
    INDEX 01 00:51:29
  TRACK 34 AUDIO
    TITLE "1Q_t_0720-0728_34"
    INDEX 01 00:51:35
  TRACK 35 AUDIO
    TITLE "1Q_t_0720-0728_35"
    INDEX 01 00:54:45
  TRACK 36 AUDIO
    TITLE "1Q_t_0720-0728_36"
    INDEX 01 00:54:53
  TRACK 37 AUDIO
    TITLE "1Q_t_0720-0728_37"
    INDEX 01 01:01:00
  TRACK 38 AUDIO
    TITLE "1Q_t_0720-0728_38"
    INDEX 01 01:01:45
  TRACK 39 AUDIO
    TITLE "1Q_t_0720-0728_39"
    INDEX 01 01:02:54
  TRACK 40 AUDIO
    TITLE "1Q_t_0720-0728_40"
    INDEX 01 01:02:64
  TRACK 41 AUDIO
    TITLE "1Q_t_0720-0728_41"
    INDEX 01 01:08:04
  TRACK 42 AUDIO
    TITLE "1Q_t_0720-0728_42"
    INDEX 01 01:08:12
  TRACK 43 AUDIO
    TITLE "1Q_t_0720-0728_43"
    INDEX 01 01:14:09
  TRACK 44 AUDIO
    TITLE "1Q_t_0720-0728_44"
    INDEX 01 01:14:56
  TRACK 45 AUDIO
    TITLE "1Q_t_0720-0728_45"
    INDEX 01 01:16:08
  TRACK 46 AUDIO
    TITLE "1Q_t_0720-0728_46"
    INDEX 01 01:16:15
  TRACK 47 AUDIO
    TITLE "1Q_t_0720-0728_47"
    INDEX 01 01:18:71
  TRACK 48 AUDIO
    TITLE "1Q_t_0720-0728_48"
    INDEX 01 01:19:04
  TRACK 49 AUDIO
    TITLE "1Q_t_0720-0728_49"
    INDEX 01 01:25:58
  TRACK 50 AUDIO
    TITLE "1Q_t_0720-0728_50"
    INDEX 01 01:26:30
  TRACK 51 AUDIO
    TITLE "1Q_t_0720-0728_51"
    INDEX 01 01:27:31
  TRACK 52 AUDIO
    TITLE "1Q_t_0720-0728_52"
    INDEX 01 01:27:41
  TRACK 53 AUDIO
    TITLE "1Q_t_0720-0728_53"
    INDEX 01 01:29:26
  TRACK 54 AUDIO
    TITLE "1Q_t_0720-0728_54"
    INDEX 01 01:29:32
  TRACK 55 AUDIO
    TITLE "1Q_t_0720-0728_55"
    INDEX 01 01:35:50
